# xmcd
# 
# Track frame offsets:
#     150
#     21937
#     43039
#     62075
#     84535
#     106237
#     133837
#     153301
#     176926
#     205901
#     221013
#     249528
# 
# Disc length: 3569
# 
# Revision: 1
# Processed by: cddbd v1.5.2PL0 Copyright (c) Steve Scherf et al.
# Submitted via: fre:ac v1.0.27
# 
DISCID=ad0def0c
DTITLE=Dave Fields - All Wound Up
DYEAR=2008
DGENRE=Blues
TTITLE0=Train to My Heart
TTITLE1=Ain't No Crime
TTITLE2=All Wound Up
TTITLE3=Let's Have a Ball
TTITLE4=Still Itchin'
TTITLE5=Cold Wind Blowing
TTITLE6=Big Fat Ludus
TTITLE7=Screamin'
TTITLE8=Wanna Be Your Man
TTITLE9=Baby Come Back
TTITLE10=Blue Ballad
TTITLE11=Guide Me to the Light
EXTD=
EXTT0=
EXTT1=
EXTT2=
EXTT3=
EXTT4=
EXTT5=
EXTT6=
EXTT7=
EXTT8=
EXTT9=
EXTT10=
EXTT11=
PLAYORDER=
